<?xml version="1.0" encoding="utf-8"?>
<!-- Generator: Adobe Illustrator 26.0.3, SVG Export Plug-In . SVG Version: 6.00 Build 0)  -->
<svg version="1.1" xmlns="http://www.w3.org/2000/svg" xmlns:xlink="http://www.w3.org/1999/xlink" x="0px" y="0px"
	 viewBox="0 0 599.9 503.7" style="enable-background:new 0 0 599.9 503.7;" xml:space="preserve">
<style type="text/css">
	.st0{fill:#F4A9A2;}
	.st1{fill:#D34340;}
	.st2{fill:none;stroke:#1D1D1B;stroke-width:2.8056;stroke-miterlimit:10;}
	.st3{fill:#1D1D1B;}
	.st4{fill:none;stroke:#2C3D58;stroke-width:2.8056;stroke-miterlimit:10;}
	.st5{fill:#2C3D58;}
	.st6{fill:#769CC0;}
	.st7{fill:#305C91;}
	.st8{fill:#E98A65;}
	.st9{fill:#F0DE8D;}
	.st10{fill:#5BBEC2;}
	.st11{font-family:'MyriadPro-Regular';}
	.st12{font-size:40px;}
	.st13{fill:#D3D3D3;}
	.st14{fill:#FFFFFF;}
</style>
<g id="Palette">
	<rect x="105.9" y="263.1" class="st0" width="66.7" height="66.7"/>
	<rect x="105.9" y="348.7" class="st1" width="66.7" height="66.7"/>
	<rect x="105.9" y="81" class="st2" width="66.7" height="66.7"/>
	<rect x="105.9" y="173.9" class="st3" width="66.7" height="66.7"/>
	<rect x="769.2" y="98.4" class="st4" width="66.7" height="66.7"/>
	<rect x="769.2" y="189.8" class="st5" width="66.7" height="66.7"/>
	<rect x="769.2" y="276.8" class="st6" width="66.7" height="66.7"/>
	<rect x="769.2" y="368.2" class="st7" width="66.7" height="66.7"/>
	<rect x="769.2" y="455.2" class="st8" width="66.7" height="66.7"/>
	<rect x="769.2" y="542.1" class="st9" width="66.7" height="66.7"/>
	<rect x="769.2" y="627.7" class="st10" width="66.7" height="66.7"/>
	<rect x="769.2" y="753.3" class="st0" width="66.7" height="66.7"/>
	<rect x="769.2" y="838.9" class="st1" width="66.7" height="66.7"/>
	<text transform="matrix(1 0 0 1 239.8685 120.9344)" class="st11 st12">Blanc #FFFFFF </text>
	<text transform="matrix(1 0 0 1 242.9075 220.6247)" class="st11 st12">Noir  #000000</text>
	<text transform="matrix(1 0 0 1 242.9078 310.7249)" class="st11 st12">Rose  #F4A9A2</text>
	<text transform="matrix(1 0 0 1 242.9072 401.5376)" class="st11 st12">Rouge  #D34340</text>
</g>
<g id="Polices">
	<text transform="matrix(1 0 0 1 58.7316 667.7891)"><tspan x="0" y="0" class="st11 st12">Titres : </tspan><tspan x="116.7" y="0" class="st12" style="font-family:'GolosText-Black';">GOLOS Black</tspan></text>
	<text transform="matrix(1 0 0 1 58.7714 767.3004)"><tspan x="0" y="0" class="st11 st12">Sous-titres : </tspan><tspan x="201.9" y="0" class="st12" style="font-family:'CascadiaCode-Regular';">Cascadia Code</tspan></text>
	<text transform="matrix(1 0 0 1 58.7716 854.8583)"><tspan x="0" y="0" class="st11 st12">Texte : </tspan><tspan x="117" y="0" class="st12">Golos Texte</tspan></text>
</g>
<g id="Rectangle_fond">
	<rect x="-1440.7" y="480" class="st13" width="646" height="517.3"/>
</g>
<g id="Blanc">
	<g>
		<g>
			<path class="st14" d="M-1397.7,961.3V834.6c0-3.4,2.8-6.2,6.2-6.2h53.5c15.7,0,27.2,3.3,34.6,9.9c7.4,6.6,11.1,15.7,11.1,27.4
				c0,7.2-1.8,13.3-5.3,18.5c-3.5,5.1-8.3,8.8-14.3,11.1c8,1.9,14.2,5.6,18.8,11.3c4.5,5.7,6.8,13,6.8,22.1c0,8-1.7,14.9-5,20.9
				c-3.3,5.9-8.6,10.5-15.8,13.8c-7.2,3.3-16.6,4.9-28.3,4.9h-55.4C-1394.6,968.1-1397.7,965.1-1397.7,961.3z M-1368,886.1h23.9
				c8.1,0,13.8-1.6,17.1-4.8c3.3-3.2,4.9-7.5,4.9-13c0-5.6-1.6-9.8-4.8-12.8c-3.2-2.9-8.8-4.4-17-4.4h-2.7
				c-11.9,0-21.5,9.6-21.5,21.5V886.1z M-1368,945.4h27.1c9.3,0,15.8-1.6,19.4-4.8c3.6-3.2,5.4-7.9,5.4-14.2
				c0-6.3-1.8-11.1-5.3-14.7c-3.5-3.5-10.1-5.3-19.7-5.3h-26.9V945.4z"/>
			<path class="st14" d="M-1264.3,968.1v-96.2h29.7v96.2H-1264.3z"/>
			<path class="st14" d="M-1144.9,970.5c-12.4,0-23.4-2.4-33.2-7.3c-9.8-4.9-17.5-12.5-23.1-22.9c-5.7-10.4-8.5-24.1-8.5-41v-4
				c0-12.1,1.7-22.5,5.1-31.3c3.4-8.8,8.1-16,14.1-21.6c6-5.6,12.8-9.7,20.5-12.4c7.6-2.7,15.7-4,24.2-4c8,0,15.3,1,21.9,2.9
				c6.6,1.9,12.4,4.8,17.5,8.6c5.1,3.8,9.2,8.6,12.6,14.4c3.3,5.8,5.7,12.5,7,20.3l-31.1,0c0,0,0,0,0,0c-1.9-5.6-4.3-9.9-7.2-12.9
				c-2.9-3-6.2-5.1-9.7-6.2c-3.5-1.1-7.2-1.7-10.9-1.7c-5.9,0-11.3,1.4-16.3,4.2c-5,2.8-9,7.4-12,13.8c-3,6.4-4.5,15-4.5,25.9v4
				c0,8.6,0.9,15.9,2.8,21.8c1.9,5.9,4.4,10.5,7.7,14.1c3.3,3.5,6.9,6.1,10.9,7.7c4,1.6,8.1,2.4,12.4,2.4c5.7,0,10.9-1,15.6-3
				c4.7-2,8.5-5.2,11.5-9.5c3-4.3,4.8-9.9,5.3-16.7h-28.3v-7.4c0-7.4,6-13.4,13.4-13.4h36.4c3.9,0,7.1,3.2,7.1,7.1v0.9
				c0,11.6-1.4,21.6-4.3,30c-2.9,8.5-7,15.4-12.4,21c-5.4,5.5-11.8,9.6-19.3,12.3C-1127.4,969.2-1135.8,970.5-1144.9,970.5z"/>
			<path class="st14" d="M-1065.6,968.1V831.8c0-1.8,1.5-3.3,3.3-3.3h53.1c11.7,0,21.5,1.9,29.2,5.6c7.8,3.7,13.7,8.9,17.7,15.7
				c4,6.7,6,14.6,6,23.6c0,9.6-2.5,17.9-7.4,25c-4.9,7.1-12.4,12.3-22.6,15.5l33.9,54.3h-34.5l-29.3-51.1h-19.8v51.1H-1065.6z
				 M-1035.9,893.5h21c11,0,18.6-1.7,22.7-5.1c4.1-3.4,6.2-8.4,6.2-15.1c0-6.7-2.1-11.7-6.2-15.1c-4.1-3.4-11.7-5.1-22.7-5.1h-5.1
				c-8.7,0-15.8,7.1-15.8,15.8V893.5z"/>
			<path class="st14" d="M-935,960V836.5c0-4.5,3.6-8.1,8.1-8.1h81.2c4.5,0,8.1,3.6,8.1,8.1v8.6c0,4.5-3.6,8.1-8.1,8.1H-897
				c-4.5,0-8.1,3.6-8.1,8.1v15c0,4.5,3.6,8.1,8.1,8.1h45.3c4.5,0,8.1,3.6,8.1,8.1v7.8c0,4.5-3.6,8.1-8.1,8.1H-897
				c-4.5,0-8.1,3.6-8.1,8.1v18.9c0,4.5,3.6,8.1,8.1,8.1h51.3c4.5,0,8.1,3.6,8.1,8.1v8.6c0,4.5-3.6,8.1-8.1,8.1h-81.2
				C-931.4,968.1-935,964.5-935,960z"/>
		</g>
		<path class="st14" d="M-1227.9,835.5c-0.6-2.7-1.6-5.1-3-7.3c-2.1-3.2-2.3-7.3-1.3-11c1.6-5.9,1.3-12.4-1.3-18.5
			c-6.1-14.2-22.5-20.7-36.5-14.6c-14,6.1-20.4,22.5-14.3,36.6c1.9,4.4,4.8,8.1,8.3,10.9c2.6,2,4.2,5,4.2,8.2c0,3,0.5,6.1,1.8,9.1
			c5.2,12,19.6,17.1,31.3,10.5C-1230.3,854.7-1225.9,844.9-1227.9,835.5z M-1259.7,823.5c-8,0-14.5-6.5-14.5-14.5
			s6.5-14.5,14.5-14.5c8,0,14.5,6.5,14.5,14.5S-1251.7,823.5-1259.7,823.5z"/>
	</g>
</g>
<g id="Blanc_couleur">
	<g>
		<g>
			<path class="st14" d="M-1397.7,684.3V557.6c0-3.4,2.8-6.2,6.2-6.2h53.5c15.7,0,27.2,3.3,34.6,9.9c7.4,6.6,11.1,15.7,11.1,27.4
				c0,7.2-1.8,13.3-5.3,18.5c-3.5,5.1-8.3,8.8-14.3,11.1c8,1.9,14.2,5.6,18.8,11.3c4.5,5.7,6.8,13,6.8,22.1c0,8-1.7,14.9-5,20.9
				c-3.3,5.9-8.6,10.5-15.8,13.8c-7.2,3.3-16.6,4.9-28.3,4.9h-55.4C-1394.6,691.1-1397.7,688-1397.7,684.3z M-1368,609.1h23.9
				c8.1,0,13.8-1.6,17.1-4.8c3.3-3.2,4.9-7.5,4.9-13c0-5.6-1.6-9.8-4.8-12.8c-3.2-2.9-8.8-4.4-17-4.4h-2.7
				c-11.9,0-21.5,9.6-21.5,21.5V609.1z M-1368,668.3h27.1c9.3,0,15.8-1.6,19.4-4.8c3.6-3.2,5.4-7.9,5.4-14.2
				c0-6.3-1.8-11.1-5.3-14.7c-3.5-3.5-10.1-5.3-19.7-5.3h-26.9V668.3z"/>
			<path class="st14" d="M-1264.3,691.1v-96.2h29.7v96.2H-1264.3z"/>
			<path class="st14" d="M-1144.9,693.5c-12.4,0-23.4-2.4-33.2-7.3c-9.8-4.9-17.5-12.5-23.1-22.9c-5.7-10.4-8.5-24.1-8.5-41v-4
				c0-12.1,1.7-22.5,5.1-31.3c3.4-8.8,8.1-16,14.1-21.6c6-5.6,12.8-9.7,20.5-12.4c7.6-2.7,15.7-4,24.2-4c8,0,15.3,1,21.9,2.9
				c6.6,1.9,12.4,4.8,17.5,8.6c5.1,3.8,9.2,8.6,12.6,14.4c3.3,5.8,5.7,12.5,7,20.3h-31.1c0,0,0,0,0,0c-1.9-5.6-4.3-9.9-7.2-12.9
				c-2.9-3-6.2-5.1-9.7-6.2c-3.5-1.1-7.2-1.7-10.9-1.7c-5.9,0-11.3,1.4-16.3,4.2c-5,2.8-9,7.4-12,13.8c-3,6.4-4.5,15-4.5,25.9v4
				c0,8.6,0.9,15.9,2.8,21.8c1.9,5.9,4.4,10.5,7.7,14.1c3.3,3.5,6.9,6.1,10.9,7.7c4,1.6,8.1,2.4,12.4,2.4c5.7,0,10.9-1,15.6-3
				c4.7-2,8.5-5.2,11.5-9.5c3-4.3,4.8-9.9,5.3-16.7h-28.3v-7.4c0-7.4,6-13.4,13.4-13.4h36.4c3.9,0,7.1,3.2,7.1,7.1v0.9
				c0,11.6-1.4,21.6-4.3,30c-2.9,8.5-7,15.4-12.4,21c-5.4,5.5-11.8,9.6-19.3,12.3C-1127.4,692.2-1135.8,693.5-1144.9,693.5z"/>
			<path class="st14" d="M-1065.6,691.1V554.7c0-1.8,1.5-3.3,3.3-3.3h53.1c11.7,0,21.5,1.9,29.2,5.6c7.8,3.7,13.7,8.9,17.7,15.7
				c4,6.7,6,14.6,6,23.6c0,9.6-2.5,17.9-7.4,25c-4.9,7.1-12.4,12.3-22.6,15.5l33.9,54.3h-34.5l-29.3-51.1h-19.8v51.1H-1065.6z
				 M-1035.9,616.5h21c11,0,18.6-1.7,22.7-5.1c4.1-3.4,6.2-8.4,6.2-15.1c0-6.7-2.1-11.7-6.2-15.1c-4.1-3.4-11.7-5.1-22.7-5.1h-5.1
				c-8.7,0-15.8,7.1-15.8,15.8V616.5z"/>
			<path class="st14" d="M-935,683V559.5c0-4.5,3.6-8.1,8.1-8.1h81.2c4.5,0,8.1,3.6,8.1,8.1v8.6c0,4.5-3.6,8.1-8.1,8.1H-897
				c-4.5,0-8.1,3.6-8.1,8.1v15c0,4.5,3.6,8.1,8.1,8.1h45.3c4.5,0,8.1,3.6,8.1,8.1v7.8c0,4.5-3.6,8.1-8.1,8.1H-897
				c-4.5,0-8.1,3.6-8.1,8.1v18.9c0,4.5,3.6,8.1,8.1,8.1h51.3c4.5,0,8.1,3.6,8.1,8.1v8.6c0,4.5-3.6,8.1-8.1,8.1h-81.2
				C-931.4,691.1-935,687.5-935,683z"/>
		</g>
		<g>
			<path class="st0" d="M-1227.9,558.5c-0.6-2.7-1.6-5.1-3-7.3c-2.1-3.2-2.3-7.3-1.3-11c1.6-5.9,1.3-12.4-1.3-18.5
				c-6.1-14.2-22.5-20.7-36.5-14.6c-14,6.1-20.4,22.5-14.3,36.6c1.9,4.4,4.8,8.1,8.3,10.9c2.6,2,4.2,5,4.2,8.2c0,3,0.5,6.1,1.8,9.1
				c5.2,12,19.6,17.1,31.3,10.5C-1230.3,577.7-1225.9,567.8-1227.9,558.5z"/>
		</g>
		<circle class="st1" cx="-1259.7" cy="532" r="14.5"/>
	</g>
</g>
<g id="Noir">
	<g>
		<g>
			<path class="st3" d="M-1397.7,400.1V273.4c0-3.4,2.8-6.2,6.2-6.2h53.5c15.7,0,27.2,3.3,34.6,9.9c7.4,6.6,11.1,15.7,11.1,27.4
				c0,7.2-1.8,13.3-5.3,18.5c-3.5,5.1-8.3,8.8-14.3,11.1c8,1.9,14.2,5.6,18.8,11.3c4.5,5.7,6.8,13,6.8,22.1c0,8-1.7,14.9-5,20.9
				c-3.3,5.9-8.6,10.5-15.8,13.8c-7.2,3.3-16.6,4.9-28.3,4.9h-55.4C-1394.6,406.9-1397.7,403.9-1397.7,400.1z M-1368,324.9h23.9
				c8.1,0,13.8-1.6,17.1-4.8c3.3-3.2,4.9-7.5,4.9-13c0-5.6-1.6-9.8-4.8-12.8c-3.2-2.9-8.8-4.4-17-4.4h-2.7
				c-11.9,0-21.5,9.6-21.5,21.5V324.9z M-1368,384.2h27.1c9.3,0,15.8-1.6,19.4-4.8c3.6-3.2,5.4-7.9,5.4-14.2
				c0-6.3-1.8-11.1-5.3-14.7c-3.5-3.5-10.1-5.3-19.7-5.3h-26.9V384.2z"/>
			<path class="st3" d="M-1264.3,406.9v-96.2h29.7v96.2H-1264.3z"/>
			<path class="st3" d="M-1144.9,409.3c-12.4,0-23.4-2.4-33.2-7.3c-9.8-4.9-17.5-12.5-23.1-22.9c-5.7-10.4-8.5-24.1-8.5-41v-4
				c0-12.1,1.7-22.5,5.1-31.3c3.4-8.8,8.1-16,14.1-21.6c6-5.6,12.8-9.7,20.5-12.4c7.6-2.7,15.7-4,24.2-4c8,0,15.3,1,21.9,2.9
				c6.6,1.9,12.4,4.8,17.5,8.6c5.1,3.8,9.2,8.6,12.6,14.4c3.3,5.8,5.7,12.5,7,20.3l-31.1,0c0,0,0,0,0,0c-1.9-5.6-4.3-9.9-7.2-12.9
				c-2.9-3-6.2-5.1-9.7-6.2c-3.5-1.1-7.2-1.7-10.9-1.7c-5.9,0-11.3,1.4-16.3,4.2c-5,2.8-9,7.4-12,13.8c-3,6.4-4.5,15-4.5,25.9v4
				c0,8.6,0.9,15.9,2.8,21.8c1.9,5.9,4.4,10.5,7.7,14.1c3.3,3.5,6.9,6.1,10.9,7.7c4,1.6,8.1,2.4,12.4,2.4c5.7,0,10.9-1,15.6-3
				c4.7-2,8.5-5.2,11.5-9.5c3-4.3,4.8-9.9,5.3-16.7l-28.3,0v-7.4c0-7.4,6-13.4,13.4-13.4h36.4c3.9,0,7.1,3.2,7.1,7.1v0.9
				c0,11.6-1.4,21.6-4.3,30c-2.9,8.5-7,15.4-12.4,21c-5.4,5.5-11.8,9.6-19.3,12.3C-1127.4,408-1135.8,409.3-1144.9,409.3z"/>
			<path class="st3" d="M-1065.6,406.9V270.6c0-1.8,1.5-3.3,3.3-3.3h53.1c11.7,0,21.5,1.9,29.2,5.6c7.8,3.7,13.7,8.9,17.7,15.7
				c4,6.7,6,14.6,6,23.6c0,9.6-2.5,17.9-7.4,25c-4.9,7.1-12.4,12.3-22.6,15.5l33.9,54.3h-34.5l-29.3-51.1h-19.8v51.1H-1065.6z
				 M-1035.9,332.3h21c11,0,18.6-1.7,22.7-5.1c4.1-3.4,6.2-8.4,6.2-15.1c0-6.7-2.1-11.7-6.2-15.1c-4.1-3.4-11.7-5.1-22.7-5.1h-5.1
				c-8.7,0-15.8,7.1-15.8,15.8V332.3z"/>
			<path class="st3" d="M-935,398.8V275.3c0-4.5,3.6-8.1,8.1-8.1h81.2c4.5,0,8.1,3.6,8.1,8.1v8.6c0,4.5-3.6,8.1-8.1,8.1H-897
				c-4.5,0-8.1,3.6-8.1,8.1v15c0,4.5,3.6,8.1,8.1,8.1h45.3c4.5,0,8.1,3.6,8.1,8.1v7.8c0,4.5-3.6,8.1-8.1,8.1H-897
				c-4.5,0-8.1,3.6-8.1,8.1v18.9c0,4.5,3.6,8.1,8.1,8.1h51.3c4.5,0,8.1,3.6,8.1,8.1v8.6c0,4.5-3.6,8.1-8.1,8.1h-81.2
				C-931.4,406.9-935,403.3-935,398.8z"/>
		</g>
		<path class="st3" d="M-1227.9,274.3c-0.6-2.7-1.6-5.1-3-7.3c-2.1-3.2-2.3-7.3-1.3-11c1.6-5.9,1.3-12.4-1.3-18.5
			c-6.1-14.2-22.5-20.7-36.5-14.6c-14,6.1-20.4,22.5-14.3,36.6c1.9,4.4,4.8,8.1,8.3,10.9c2.6,2,4.2,5,4.2,8.2c0,3,0.5,6.1,1.8,9.1
			c5.2,12,19.6,17.1,31.3,10.5C-1230.3,293.5-1225.9,283.7-1227.9,274.3z M-1259.7,262.3c-8,0-14.5-6.5-14.5-14.5
			c0-8,6.5-14.5,14.5-14.5c8,0,14.5,6.5,14.5,14.5C-1245.2,255.9-1251.7,262.3-1259.7,262.3z"/>
	</g>
</g>
<g id="Classique_-_noir_Couleur">
	<g>
		<g>
			<path class="st3" d="M-1397.7,126.7V0.1c0-3.4,2.8-6.2,6.2-6.2h53.5c15.7,0,27.2,3.3,34.6,9.9c7.4,6.6,11.1,15.7,11.1,27.4
				c0,7.2-1.8,13.3-5.3,18.5c-3.5,5.1-8.3,8.8-14.3,11.1c8,1.9,14.2,5.6,18.8,11.3c4.5,5.7,6.8,13,6.8,22.1c0,8-1.7,14.9-5,20.9
				c-3.3,5.9-8.6,10.5-15.8,13.8c-7.2,3.3-16.6,4.9-28.3,4.9h-55.4C-1394.6,133.6-1397.7,130.5-1397.7,126.7z M-1368,51.6h23.9
				c8.1,0,13.8-1.6,17.1-4.8c3.3-3.2,4.9-7.5,4.9-13c0-5.6-1.6-9.8-4.8-12.8c-3.2-2.9-8.8-4.4-17-4.4h-2.7
				c-11.9,0-21.5,9.6-21.5,21.5V51.6z M-1368,110.8h27.1c9.3,0,15.8-1.6,19.4-4.8c3.6-3.2,5.4-7.9,5.4-14.2c0-6.3-1.8-11.1-5.3-14.7
				c-3.5-3.5-10.1-5.3-19.7-5.3h-26.9V110.8z"/>
			<path class="st3" d="M-1264.3,133.6V37.4h29.7v96.2H-1264.3z"/>
			<path class="st3" d="M-1144.9,136c-12.4,0-23.4-2.4-33.2-7.3c-9.8-4.9-17.5-12.5-23.1-22.9c-5.7-10.4-8.5-24.1-8.5-41v-4
				c0-12.1,1.7-22.5,5.1-31.3c3.4-8.8,8.1-16,14.1-21.6c6-5.6,12.8-9.7,20.5-12.4c7.6-2.7,15.7-4,24.2-4c8,0,15.3,1,21.9,2.9
				c6.6,1.9,12.4,4.8,17.5,8.6c5.1,3.8,9.2,8.6,12.6,14.4c3.3,5.8,5.7,12.5,7,20.3l-31.1,0c0,0,0,0,0,0c-1.9-5.6-4.3-9.9-7.2-12.9
				c-2.9-3-6.2-5.1-9.7-6.2c-3.5-1.1-7.2-1.7-10.9-1.7c-5.9,0-11.3,1.4-16.3,4.2c-5,2.8-9,7.4-12,13.8c-3,6.4-4.5,15-4.5,25.9v4
				c0,8.6,0.9,15.9,2.8,21.8c1.9,5.9,4.4,10.5,7.7,14.1c3.3,3.5,6.9,6.1,10.9,7.7c4,1.6,8.1,2.4,12.4,2.4c5.7,0,10.9-1,15.6-3
				c4.7-2,8.5-5.2,11.5-9.5c3-4.3,4.8-9.9,5.3-16.7l-28.3,0v-7.4c0-7.4,6-13.4,13.4-13.4h36.4c3.9,0,7.1,3.2,7.1,7.1v0.9
				c0,11.6-1.4,21.6-4.3,30c-2.9,8.5-7,15.4-12.4,21c-5.4,5.5-11.8,9.6-19.3,12.3C-1127.4,134.6-1135.8,136-1144.9,136z"/>
			<path class="st3" d="M-1065.6,133.6V-2.8c0-1.8,1.5-3.3,3.3-3.3h53.1c11.7,0,21.5,1.9,29.2,5.6c7.8,3.7,13.7,8.9,17.7,15.7
				c4,6.7,6,14.6,6,23.6c0,9.6-2.5,17.9-7.4,25c-4.9,7.1-12.4,12.3-22.6,15.5l33.9,54.3h-34.5l-29.3-51.1h-19.8v51.1H-1065.6z
				 M-1035.9,58.9h21c11,0,18.6-1.7,22.7-5.1c4.1-3.4,6.2-8.4,6.2-15.1c0-6.7-2.1-11.7-6.2-15.1c-4.1-3.4-11.7-5.1-22.7-5.1h-5.1
				c-8.7,0-15.8,7.1-15.8,15.8V58.9z"/>
			<path class="st3" d="M-935,125.5V2c0-4.5,3.6-8.1,8.1-8.1h81.2c4.5,0,8.1,3.6,8.1,8.1v8.6c0,4.5-3.6,8.1-8.1,8.1H-897
				c-4.5,0-8.1,3.6-8.1,8.1v15c0,4.5,3.6,8.1,8.1,8.1h45.3c4.5,0,8.1,3.6,8.1,8.1v7.8c0,4.5-3.6,8.1-8.1,8.1H-897
				c-4.5,0-8.1,3.6-8.1,8.1v18.9c0,4.5,3.6,8.1,8.1,8.1h51.3c4.5,0,8.1,3.6,8.1,8.1v8.6c0,4.5-3.6,8.1-8.1,8.1h-81.2
				C-931.4,133.6-935,130-935,125.5z"/>
		</g>
		<g>
			<path class="st0" d="M-1227.9,0.9c-0.6-2.7-1.6-5.1-3-7.3c-2.1-3.2-2.3-7.3-1.3-11c1.6-5.9,1.3-12.4-1.3-18.5
				c-6.1-14.2-22.5-20.7-36.5-14.6c-14,6.1-20.4,22.5-14.3,36.6c1.9,4.4,4.8,8.1,8.3,10.9c2.6,2,4.2,5,4.2,8.2c0,3,0.5,6.1,1.8,9.1
				c5.2,12,19.6,17.1,31.3,10.5C-1230.3,20.2-1225.9,10.3-1227.9,0.9z"/>
		</g>
		<circle class="st1" cx="-1259.7" cy="-25.5" r="14.5"/>
	</g>
</g>
</svg>
